<svg width="204" height="204" viewBox="0 0 204 204" fill="none" xmlns="http://www.w3.org/2000/svg">
<circle cx="100" cy="100" r="90" stroke="#151515" stroke-width="20" fill="none"/>
<circle cx="100" cy="100" r="90" stroke="url(#paint0_linear_16_339)" stroke-width="20" fill="none" stroke-dasharray="534.07" stroke-dashoffset="30" transform="rotate(0 100 100)" stroke-linecap="round"/>
<path d="M66.08 99.16C66.08 103.804 69.32 107.512 74.036 107.512C74.648 107.512 75.08 107.44 75.332 107.296L69.896 115H77.528L83.072 106.18C84.476 103.912 85.376 101.32 85.376 98.98C85.376 93.724 81.308 89.8 75.728 89.8C70.256 89.8 66.08 93.76 66.08 99.16ZM72.416 98.908C72.416 97.072 73.892 95.668 75.764 95.668C77.636 95.668 79.076 97.108 79.076 98.944C79.076 100.78 77.636 102.184 75.764 102.184C73.892 102.184 72.416 100.744 72.416 98.908ZM109.665 102.652C109.665 95.848 105.777 89.8 98.7213 89.8C91.6293 89.8 87.7413 95.848 87.7413 102.652C87.7413 109.456 91.6293 115.504 98.7213 115.504C105.777 115.504 109.665 109.456 109.665 102.652ZM102.969 102.652C102.969 106 101.673 109.276 98.7213 109.276C95.7333 109.276 94.4373 106 94.4373 102.652C94.4373 99.304 95.7333 96.028 98.7213 96.028C101.673 96.028 102.969 99.304 102.969 102.652ZM124.521 96.028C124.521 92.608 121.749 89.944 118.185 89.944C114.621 89.944 111.849 92.608 111.849 96.028C111.849 99.448 114.621 102.112 118.185 102.112C121.749 102.112 124.521 99.448 124.521 96.028ZM120.273 96.028C120.273 97.288 119.373 98.152 118.185 98.152C116.997 98.152 116.097 97.288 116.097 96.028C116.097 94.768 116.997 93.904 118.185 93.904C119.373 93.904 120.273 94.768 120.273 96.028ZM138.021 90.268H132.513L114.153 115H119.661L138.021 90.268ZM127.653 109.24C127.653 112.66 130.425 115.324 133.989 115.324C137.553 115.324 140.325 112.66 140.325 109.24C140.325 105.82 137.553 103.156 133.989 103.156C130.425 103.156 127.653 105.82 127.653 109.24ZM131.901 109.24C131.901 107.98 132.801 107.116 133.989 107.116C135.177 107.116 136.077 107.98 136.077 109.24C136.077 110.5 135.177 111.364 133.989 111.364C132.801 111.364 131.901 110.5 131.901 109.24Z" fill="white"/>
<defs>
<linearGradient id="paint0_linear_16_339" x1="-12.4348" y1="91.2145" x2="228.124" y2="92.098" gradientUnits="userSpaceOnUse">
<stop stop-color="#AA367C"/>
<stop offset="1" stop-color="#4A2FBD"/>
</linearGradient>
</defs>
</svg>
